<svg id="Component_46_1" data-name="Component 46 – 1" xmlns="http://www.w3.org/2000/svg" width="32" height="32" viewBox="0 0 32 32">
  <g id="Group_2534" data-name="Group 2534" transform="translate(-7088 506)">
    <g id="Group_2735" data-name="Group 2735">
      <g id="Path_3250" data-name="Path 3250" transform="translate(7088 -506)" fill="none">
        <path d="M16,0A16,16,0,1,1,0,16,16,16,0,0,1,16,0Z" stroke="none"/>
        <path d="M 16 1 C 11.99334907531738 1 8.226520538330078 2.560270309448242 5.393400192260742 5.393400192260742 C 2.560270309448242 8.226520538330078 1 11.99334907531738 1 16 C 1 20.00664901733398 2.560270309448242 23.77347946166992 5.393400192260742 26.60659980773926 C 8.226520538330078 29.43972969055176 11.99334907531738 31 16 31 C 20.00664901733398 31 23.77347946166992 29.43972969055176 26.60659980773926 26.60659980773926 C 29.43972969055176 23.77347946166992 31 20.00664901733398 31 16 C 31 11.99334907531738 29.43972969055176 8.226520538330078 26.60659980773926 5.393400192260742 C 23.77347946166992 2.560270309448242 20.00664901733398 1 16 1 M 16 0 C 24.8365592956543 0 32 7.163440704345703 32 16 C 32 24.8365592956543 24.8365592956543 32 16 32 C 7.163440704345703 32 0 24.8365592956543 0 16 C 0 7.163440704345703 7.163440704345703 0 16 0 Z" stroke="none" fill="#000"/>
      </g>
      <g id="Group_2734" data-name="Group 2734" transform="translate(6323.016 -961.802)">
        <circle id="Ellipse_99" data-name="Ellipse 99" cx="4.667" cy="4.667" r="4.667" transform="translate(776.317 463.802)" fill="#262626"/>
        <path id="Path_88" data-name="Path 88" d="M780.984,479.346c-4.419,0-8,1.173-8,2.621v.488H773c.15,1.4,3.663,2.528,7.986,2.528s7.835-1.124,7.985-2.528h.015v-.488C788.984,480.519,785.4,479.346,780.984,479.346Z" transform="translate(0 -5.181)" fill="#262626"/>
      </g>
    </g>
  </g>
</svg>
